<?xml version="1.0" encoding="UTF-8"?>
<svg id="Layer_2" xmlns="http://www.w3.org/2000/svg" version="1.1" viewBox="0 0 360 360">
  <!-- Generator: Adobe Illustrator 30.2.1, SVG Export Plug-In . SVG Version: 2.1.1 Build 1)  -->
  <defs>
    <style>
      .st0 {
        fill: #89986d;
      }
    </style>
  </defs>
  <path class="st0" d="M312.61,123.03c-.28.07-.56.12-.82.18.41-.08.77.26.71.67-.16,1.22-.32,2.49-.46,3.83-.78,7.63-.56,13.34-.5,14.74.23,5.12.79,7.87,1.21,11.29,1.04,8.34.04,10.95-.27,23.55-.28,11.37.27,20.19.84,29.51.59,9.59.8,7.63,1.48,18.26.93,14.64,1.02,25.71.99,31.97-.02,3.59-.04,7.47-.26,12.7-.35,8.44-1,15.55-1.61,20.85-.03.25-.21.45-.47.51-1.37.31-3.28.73-5.55,1.23-8.13,1.8-12.19,2.71-14.82,3.39-7.75,2-7.14,2.51-15.67,4.8-6.78,1.83-6.88,1.38-12.35,3.03-5.52,1.67-7.47,2.71-13.81,4.85-1.19.4-7.43,2.49-15.05,4.4-9.25,2.33-9.58,1.64-19.13,3.92-5.41,1.29-4.16,1.23-17.52,4.76-6.09,1.61-9.45,2.45-13.81,3.23-3.17.58-5.97.95-8.19,1.21h-.02c-.19.06-.36.08-.45.09-.51.05-1.03.1-1.55.13-2.48.17-4.97.14-7.44.46-.16.02-.68.09-.89-.17-.04-.04-.06-.09-.07-.13-.71.06-1.51.08-2.39.05-.68-.03-1.31-.09-1.89-.16-.3-.04-.51-.28-.52-.58-.03-.78-.06-1.71-.09-2.76,0,0-.05-2.1-.07-4.18-.01-1.19.05-6.79.1-10.88-4.07.28-8.71.62-13.79,1.05-15.02,1.28-16.73,1.86-33.56,3.37-18.02,1.62-29.08,2.12-34.49,2.32-.01-.01-.02-.01-.02,0-.77.02-1.44.04-1.98.06-1.71.05-3.36.09-4.91.11l-.03,1.69c-.02,1.23-.05,2.53-.09,3.91,0,.22-.12.42-.3.52-1.34.78-2.67,1.56-4.02,2.34.03.16.05.35-.06.46-.12.11-.34.05-.39.04-.37-.08-.45.16-4.25.32-5.11.21-4.47-.24-5.44-.13-.11,0-.45.05-.7-.13-.26-.21-.29-.57-.31-.83-.07-.62-.29-1.22-.31-1.84-.24-5.58-.62-5.34-.37-10.36.21-4.42.47-4.02.71-8.47.17-3.1.1-4.53.13-8.72.03-6.1.19-6.75.24-11.84.07-6.63-.1-11.63-.29-16.71-.39-10.7-.73-9.92-.68-15.48.06-8.13.78-8.72.29-14.32-.25-2.73-.66-5.42-.85-10.37-.08-2.15-.09-3.92-.09-5.61-.03-6.82.28-7.2,0-10.63-.2-2.5-.43-3.18-.34-5.17.09-1.89.37-2.68.53-5.07.14-2.04.07-3.5.04-4.44-.13-4.21.16-9.02.29-14.48.28-10.88-.24-14.29-.17-28.1-2.29.5-6.14,1.61-7.01,1.84-3.14.82-4.43,1.56-7.39,2.21-1.9.42-3.47.58-4.46.66-.11-.4-.23-.8-.34-1.2,2.24-2.98,5.54-7.44,9.43-12.92,4.71-6.65,6.48-9.45,11.9-17.41,3.92-5.77,9.18-13.47,16.06-22.96,10.04-13.83,12.97-16.85,14.17-18.06.92-.93,3.92-3.89,7.69-8.16,2.86-3.24,4.31-4.85,6.11-7.4,2.06-2.91,2.59-4.21,5.34-8.2,1.44-2.09,2.71-3.78,3.57-4.91.1-.12.21-.19.35-.22,1.36-.25,3.39-.62,5.84-1.11,3.39-.7,4.99-1.09,8.36-1.82,4.69-1.01,7.04-1.52,9.13-1.85,5.14-.8,5.97-.46,11.68-1.28,3.31-.48,2.92-.58,7.94-1.44,1.13-.19,3.43-.58,14.12-2.04,8.93-1.21,10.32-1.35,11.2-1.43,5.16-.47,8.72-.51,11.15-.58,3.68-.11,9.98-.79,22.41-2.15,30.72-3.37,22.27-2.97,27.73-3.38,2.24-.17,7.56-.53,14.19-2.66,1.57-.5,2.85-.98,3.78-1.35.77.26,1.35.45,2.12.71.57.93,1.33,2.14,2.21,3.54.75,1.2,2.14,3.41,3.18,4.99,2.54,3.88,4.84,6.82,5.9,8.18,2.01,2.55,2.99,3.57,7.4,8.53.94,1.07,6.14,6.92,10.81,12.33,4.43,5.14,6.65,7.72,8.08,9.61,4.88,6.42,8.07,12.07,9.82,15.22.64,1.16,2.64,4.89,6.62,12.37.65,1.23,2.37,4.45,5.14,8.38.35.49.63.88.82,1.15-.6.58-1.51,1.38-2.76,2.14-1.23.75-2.32,1.17-3.36,1.52-1.32.44-2.39.74-3.41.96Z"/>
</svg>